#define mag_mask_width 24
#define mag_mask_height 24
#define mag_mask_x_hot 10
#define mag_mask_y_hot 10
static unsigned char mag_mask_bits[] = {
   0x00, 0x00, 0x00, 0x00, 0x00, 0x00, 0x00, 0x00, 0x00, 0x00, 0x00, 0x00,
   0x00, 0x00, 0x00, 0x00, 0x00, 0x00, 0x00, 0x00, 0x00, 0x80, 0x08, 0x00,
   0x00, 0x05, 0x00, 0x00, 0x00, 0x00, 0x00, 0x05, 0x00, 0x80, 0x08, 0x00,
   0x00, 0x00, 0x00, 0x00, 0x80, 0x00, 0x00, 0xc0, 0x01, 0x00, 0xe0, 0x03,
   0x00, 0xf0, 0x07, 0x00, 0xe0, 0x0f, 0x00, 0xc0, 0x1f, 0x00, 0x80, 0x0f,
   0x00, 0x00, 0x07, 0x00, 0x00, 0x00, 0x00, 0x00, 0x00, 0x00, 0x00, 0x00 };
