#define mag_width 24
#define mag_height 24
#define mag_x_hot 10
#define mag_y_hot 10
static unsigned char mag_bits[] = {
   0x00, 0x00, 0x00, 0x00, 0x00, 0x00, 0x00, 0x00, 0x00, 0xc0, 0x1f, 0x00,
   0xe0, 0x3f, 0x00, 0x70, 0x70, 0x00, 0x38, 0xe0, 0x00, 0x18, 0xc2, 0x00,
   0x18, 0xc0, 0x00, 0x98, 0xc8, 0x00, 0x18, 0xc0, 0x00, 0x18, 0xc2, 0x00,
   0x38, 0xe0, 0x00, 0x70, 0x70, 0x01, 0xe0, 0x3f, 0x02, 0xc0, 0x1f, 0x04,
   0x00, 0x08, 0x08, 0x00, 0x10, 0x10, 0x00, 0x20, 0x20, 0x00, 0x40, 0x30,
   0x00, 0x80, 0x18, 0x00, 0x00, 0x0f, 0x00, 0x00, 0x00, 0x00, 0x00, 0x00 };
